<svg width="332" height="80" viewBox="0 0 332 80" fill="none" xmlns="http://www.w3.org/2000/svg">
<g clip-path="url(#clip0_524_290)">
<path d="M227.957 67.2517H233.924L218.975 32.5061H215.937L200.945 67.2517H206.815L212.405 54.3096L217.434 42.7134L224.705 59.747L227.957 67.2517Z" fill="#1E1E1C"/>
<path d="M240.483 43.3593C241.22 42.1393 242.151 41.0482 243.241 40.1292C244.334 39.2093 245.576 38.4812 246.913 37.9757C248.288 37.4464 249.748 37.1763 251.221 37.179C252.462 37.175 253.696 37.3565 254.883 37.7173C256.041 38.0717 257.133 38.6137 258.115 39.3216L261.195 34.7133C258.789 33.128 256.04 32.1407 253.175 31.8335C250.31 31.5263 247.414 31.9083 244.727 32.9475C242.754 33.729 240.931 34.8475 239.342 36.253C237.747 37.6573 236.416 39.3345 235.41 41.2059C234.368 43.1198 233.696 45.2128 233.429 47.3755H239.018C239.256 45.9582 239.753 44.5968 240.483 43.3593Z" fill="#1E1E1C"/>
<path d="M261.216 64.6676L258.136 60.1239C256.114 61.5269 253.704 62.2612 251.243 62.2235C249.831 62.2284 248.429 61.9917 247.096 61.5236C245.818 61.0715 244.624 60.4093 243.564 59.564C242.504 58.7235 241.584 57.7205 240.839 56.5923C240.074 55.4313 239.499 54.1554 239.137 52.813H233.547C233.886 54.8948 234.617 56.8935 235.701 58.7026C237.797 62.3132 241.083 65.0839 244.996 66.5411C247.002 67.2987 249.131 67.6819 251.275 67.6717C254.824 67.6815 258.296 66.6358 261.249 64.6676H261.216Z" fill="#1E1E1C"/>
<path d="M283.253 53.9326C284.526 53.7555 285.756 53.3468 286.882 52.7267C287.988 52.1156 288.979 51.3178 289.812 50.3687C291.544 48.4298 292.493 45.9157 292.472 43.3162C292.479 41.8602 292.193 40.4177 291.632 39.074C291.099 37.7782 290.316 36.6001 289.327 35.6069C288.342 34.6235 287.18 33.8345 285.902 33.2812C284.581 32.7053 283.154 32.4119 281.713 32.4198H265.643V67.3378H271.093V54.0295H276.812L285.87 67.1547H292.429L283.253 53.9326ZM271.093 48.6244V37.8573H281.68C282.394 37.8472 283.101 37.9981 283.748 38.2987C284.379 38.5887 284.951 38.9899 285.439 39.4831C285.938 39.9827 286.333 40.5754 286.602 41.2274C286.887 41.9092 287.03 42.6419 287.023 43.3808C287.029 44.0917 286.886 44.7961 286.602 45.4481C286.331 46.081 285.944 46.6579 285.461 47.1493C284.987 47.6435 284.419 48.0387 283.791 48.3122C283.139 48.5955 282.435 48.7386 281.723 48.7321L271.093 48.6244Z" fill="#1E1E1C"/>
<path d="M330.783 56.2368C331.584 54.1966 331.986 52.0219 331.968 49.8304C331.981 47.4487 331.508 45.0893 330.578 42.8963C328.776 38.6181 325.376 35.2111 321.1 33.3997C318.91 32.4761 316.557 32.0002 314.18 32.0002C311.803 32.0002 309.45 32.4761 307.26 33.3997C302.985 35.2111 299.584 38.6181 297.782 42.8963C296.001 47.1345 295.916 51.8949 297.545 56.1938C299.042 60.1165 301.881 63.382 305.558 65.4105C307.419 66.4511 309.457 67.1375 311.568 67.4347V62.1265C310.168 61.8254 308.828 61.2903 307.605 60.5437C306.412 59.8125 305.352 58.8841 304.471 57.7981C303.573 56.6946 302.863 55.4504 302.37 54.1157C301.853 52.7391 301.594 51.2792 301.606 49.8088C301.595 48.1307 301.925 46.4678 302.575 44.9206C303.216 43.4274 304.133 42.0685 305.278 40.9152C306.43 39.7707 307.79 38.857 309.285 38.2234C310.834 37.5766 312.496 37.2436 314.175 37.2436C315.854 37.2436 317.516 37.5766 319.065 38.2234C322.088 39.4983 324.494 41.9007 325.775 44.9206C326.434 46.4655 326.767 48.1294 326.755 49.8088C326.757 51.2813 326.487 52.7415 325.958 54.1157C325.44 55.4533 324.713 56.7 323.804 57.8089C321.968 60.0394 319.413 61.562 316.577 62.1157V67.4562C318.712 67.1853 320.777 66.5131 322.662 65.4751C324.501 64.4623 326.148 63.1359 327.53 61.5558C328.911 59.9818 330.011 58.1827 330.783 56.2368Z" fill="#1E1E1C"/>
<path d="M203.885 69.9328C203.613 69.9163 203.339 69.9163 203.067 69.9328H200.654V76.307H203.067C203.339 76.3235 203.613 76.3235 203.885 76.307C204.671 76.2332 205.395 75.8525 205.901 75.2476C206.408 74.6428 206.654 73.8627 206.589 73.0768C206.632 72.6903 206.595 72.2989 206.48 71.9272C206.365 71.5555 206.175 71.2115 205.922 70.9165C205.668 70.6215 205.356 70.3819 205.006 70.2127C204.656 70.0434 204.274 69.9482 203.885 69.9328ZM203.444 74.9611C203.243 74.9722 203.041 74.9722 202.84 74.9611H202.323V71.1711H202.84C203.041 71.1599 203.243 71.1599 203.444 71.1711C204.273 71.2357 204.844 71.8494 204.844 72.9907C204.844 74.132 204.23 74.8857 203.444 74.9934V74.9611Z" fill="#1E1E1C"/>
<path d="M209.701 71.2139C209.353 71.197 209.004 71.2531 208.678 71.3785C208.353 71.5039 208.057 71.6959 207.809 71.9421C207.562 72.1883 207.369 72.4834 207.242 72.8086C207.115 73.1337 207.058 73.4817 207.073 73.8303C207.042 74.1732 207.087 74.5186 207.203 74.8426C207.32 75.1665 207.505 75.4613 207.747 75.7062C207.989 75.9511 208.282 76.1404 208.604 76.2609C208.927 76.3813 209.272 76.43 209.615 76.4036C210.167 76.4522 210.719 76.3037 211.173 75.9844C211.626 75.6651 211.952 75.1957 212.092 74.6594H210.455C210.423 74.8478 210.321 75.0171 210.169 75.133C210.017 75.249 209.827 75.3029 209.637 75.2838C209.163 75.2838 208.796 75.047 208.71 74.2071H212.157C212.167 74.0458 212.167 73.884 212.157 73.7226C212.17 73.3942 212.116 73.0665 211.998 72.7597C211.88 72.4528 211.701 72.1734 211.471 71.9385C211.241 71.7035 210.965 71.518 210.661 71.3934C210.356 71.2688 210.03 71.2077 209.701 71.2139ZM208.775 73.2058C208.883 72.5921 209.184 72.3336 209.626 72.3336C210.067 72.3336 210.358 72.6244 210.444 73.2058H208.775Z" fill="#1E1E1C"/>
<path d="M215.614 73.3028C214.666 73.0659 214.44 72.8829 214.44 72.6029C214.441 72.5529 214.453 72.5037 214.474 72.4583C214.495 72.4129 214.525 72.3723 214.562 72.339C214.6 72.3057 214.644 72.2805 214.691 72.2647C214.739 72.249 214.789 72.2432 214.839 72.2476C215.14 72.2476 215.302 72.4414 215.377 72.786H217.014C216.94 72.3076 216.683 71.8767 216.297 71.5836C215.912 71.2905 215.427 71.1581 214.946 71.2139C213.632 71.2139 212.792 71.8169 212.792 72.7967C212.792 73.7765 213.352 74.078 214.3 74.3041C215.248 74.5302 215.496 74.681 215.496 74.9932C215.496 75.3055 215.259 75.3701 214.968 75.3701C214.791 75.3681 214.62 75.3047 214.484 75.1908C214.349 75.077 214.257 74.9196 214.225 74.7456H212.588C212.717 75.8223 213.665 76.4037 214.968 76.4037C216.271 76.4037 217.122 75.9192 217.122 74.864C217.122 73.8088 216.508 73.5181 215.614 73.3028Z" fill="#1E1E1C"/>
<path d="M220.149 71.2139C219.8 71.197 219.452 71.2531 219.126 71.3785C218.8 71.5039 218.504 71.6959 218.257 71.9421C218.009 72.1883 217.816 72.4834 217.689 72.8086C217.563 73.1337 217.505 73.4817 217.521 73.8303C217.49 74.1732 217.534 74.5186 217.651 74.8426C217.767 75.1665 217.953 75.4613 218.195 75.7062C218.437 75.9511 218.729 76.1404 219.052 76.2609C219.374 76.3813 219.719 76.43 220.062 76.4036C220.615 76.4544 221.168 76.3067 221.622 75.9871C222.076 75.6675 222.401 75.1969 222.54 74.6594H220.903C220.871 74.8478 220.768 75.0171 220.617 75.133C220.465 75.249 220.274 75.3029 220.084 75.2838C219.61 75.2838 219.244 75.047 219.168 74.2071H222.604C222.614 74.0458 222.614 73.884 222.604 73.7226C222.618 73.3942 222.564 73.0665 222.446 72.7597C222.328 72.4528 222.148 72.1734 221.918 71.9385C221.688 71.7035 221.412 71.518 221.108 71.3934C220.804 71.2688 220.477 71.2077 220.149 71.2139ZM219.222 73.2058C219.33 72.5921 219.632 72.3336 220.073 72.3336C220.515 72.3336 220.806 72.6244 220.892 73.2058H219.222Z" fill="#1E1E1C"/>
<path d="M226.579 71.2139C226.201 71.2071 225.828 71.3039 225.501 71.4938L225.049 72.1076V71.3431H223.391V76.2745H225.049V73.9165C225.049 72.8397 225.415 72.3014 225.922 72.3014C226.025 72.2904 226.13 72.3019 226.229 72.3353C226.328 72.3687 226.418 72.423 226.494 72.4947C226.569 72.5663 226.629 72.6535 226.668 72.7502C226.706 72.847 226.724 72.951 226.719 73.0551C226.719 73.3027 226.719 73.5719 226.719 73.7334V76.2422H228.377V73.4858C228.402 73.174 228.402 72.8608 228.377 72.549C228.353 72.3408 228.286 72.1397 228.18 71.9583C228.075 71.7768 227.934 71.6187 227.766 71.4937C227.597 71.3687 227.405 71.2794 227.201 71.2313C226.997 71.1831 226.785 71.1772 226.579 71.2139Z" fill="#1E1E1C"/>
<path d="M232.696 71.3325L231.695 74.9503L230.671 71.3325H228.819L230.768 76.2747H232.567L234.516 71.3325H232.696Z" fill="#1E1E1C"/>
<path d="M237.08 71.2141C236.571 71.2331 236.079 71.4013 235.665 71.6977C235.251 71.9942 234.934 72.4057 234.752 72.8813C234.57 73.3568 234.532 73.8752 234.643 74.372C234.754 74.8688 235.009 75.3221 235.375 75.6753C235.742 76.0286 236.204 76.2663 236.705 76.3588C237.206 76.4514 237.722 76.3946 238.191 76.1957C238.66 75.9967 239.06 75.6644 239.341 75.24C239.622 74.8156 239.772 74.318 239.772 73.809C239.794 73.4541 239.739 73.0987 239.61 72.7673C239.481 72.4359 239.282 72.1364 239.026 71.8897C238.77 71.6429 238.463 71.4547 238.127 71.338C237.791 71.2214 237.434 71.1791 237.08 71.2141ZM237.08 75.2841C236.487 75.2841 236.132 74.7888 236.132 73.809C236.132 72.8291 236.487 72.3339 237.08 72.3339C237.672 72.3339 238.038 72.8184 238.038 73.809C238.038 74.7995 237.672 75.2841 237.08 75.2841Z" fill="#1E1E1C"/>
<path d="M242.11 74.9934C242.095 74.843 242.095 74.6916 242.11 74.5411V69.5237H240.419V74.5734C240.419 74.9395 240.419 75.198 240.419 75.4564C240.419 76.1132 240.892 76.4147 241.657 76.4147C242.023 76.4147 242.325 76.4147 242.626 76.4147V75.2841C242.217 75.2195 242.131 75.1549 242.11 74.9934Z" fill="#1E1E1C"/>
<path d="M245.621 74.9503L244.598 71.3325H242.745L244.705 76.2747H246.493L248.453 71.3325H246.622L245.621 74.9503Z" fill="#1E1E1C"/>
<path d="M249.703 69.3296C249.543 69.338 249.389 69.3931 249.26 69.488C249.132 69.5829 249.033 69.7134 248.978 69.8635C248.923 70.0136 248.912 70.1766 248.949 70.3324C248.985 70.4881 249.066 70.6299 249.182 70.7401C249.298 70.8503 249.444 70.924 249.601 70.9523C249.759 70.9805 249.921 70.962 250.068 70.899C250.215 70.836 250.341 70.7313 250.429 70.5978C250.517 70.4643 250.564 70.3079 250.564 70.1479C250.57 70.0354 250.551 69.923 250.508 69.8185C250.466 69.714 250.402 69.6197 250.321 69.5421C250.239 69.4645 250.141 69.4054 250.035 69.3687C249.928 69.332 249.815 69.3187 249.703 69.3296Z" fill="#1E1E1C"/>
<path d="M250.543 71.3325H248.874V76.2747H250.543V71.3325Z" fill="#1E1E1C"/>
<path d="M257.824 71.2032C257.444 71.1885 257.068 71.2899 256.747 71.4939L256.23 72.1722C256.101 71.8646 255.879 71.6054 255.595 71.4314C255.311 71.2574 254.979 71.1775 254.646 71.2032C254.267 71.1912 253.892 71.2924 253.569 71.4939L253.171 72.1291V71.3431H251.501V76.2745H253.171V73.6688C253.171 72.829 253.386 72.3337 253.914 72.3337C254.442 72.3337 254.571 72.6137 254.636 73.0874C254.636 73.3351 254.636 73.6042 254.636 73.7657V76.2745H256.305V73.6688C256.305 72.829 256.51 72.3337 257.048 72.3337C257.587 72.3337 257.705 72.6137 257.759 73.0874C257.773 73.3134 257.773 73.5398 257.759 73.7657V76.2745H259.429V73.3889C259.437 73.0793 259.419 72.7695 259.375 72.4629C259.308 72.1029 259.116 71.7783 258.831 71.5474C258.547 71.3166 258.19 71.1945 257.824 71.2032Z" fill="#1E1E1C"/>
<path d="M262.832 71.2141C262.483 71.1974 262.134 71.2535 261.808 71.3787C261.482 71.504 261.185 71.6958 260.937 71.9418C260.689 72.1879 260.494 72.4829 260.366 72.808C260.238 73.1331 260.179 73.4814 260.193 73.8305C260.164 74.1739 260.21 74.5195 260.328 74.8435C260.445 75.1674 260.632 75.4619 260.875 75.7067C261.118 75.9514 261.411 76.1405 261.734 76.2609C262.057 76.3812 262.402 76.43 262.746 76.4038C263.298 76.4524 263.85 76.3039 264.304 75.9846C264.757 75.6654 265.083 75.1959 265.223 74.6596H263.586C263.554 74.8501 263.45 75.0211 263.296 75.1373C263.142 75.2535 262.949 75.306 262.757 75.284C262.293 75.284 261.927 75.0472 261.841 74.2073H265.288C265.298 74.046 265.298 73.8842 265.288 73.7228C265.301 73.3944 265.247 73.0667 265.129 72.7599C265.011 72.4531 264.831 72.1736 264.601 71.9387C264.371 71.7037 264.096 71.5182 263.792 71.3936C263.487 71.269 263.161 71.2079 262.832 71.2141ZM261.906 73.206C262.013 72.5923 262.315 72.3339 262.757 72.3339C263.198 72.3339 263.478 72.6246 263.575 73.206H261.906Z" fill="#1E1E1C"/>
<path d="M269.262 71.214C268.884 71.2072 268.512 71.304 268.185 71.4939L267.733 72.1077V71.3432H266.074V76.2746H267.733V73.9166C267.733 72.8398 268.099 72.3015 268.605 72.3015C268.708 72.2923 268.812 72.3051 268.91 72.3391C269.008 72.3732 269.098 72.4276 269.173 72.4989C269.249 72.5701 269.308 72.6566 269.347 72.7525C269.387 72.8484 269.405 72.9516 269.402 73.0552C269.402 73.3028 269.402 73.572 269.402 73.7335V76.2423H271.007V73.4859C271.027 73.1739 271.027 72.8611 271.007 72.5491C270.982 72.3462 270.916 72.1503 270.815 71.9729C270.713 71.7955 270.577 71.6401 270.414 71.5158C270.252 71.3915 270.066 71.3008 269.869 71.249C269.671 71.1972 269.465 71.1853 269.262 71.214Z" fill="#1E1E1C"/>
<path d="M274.001 70.0942H272.332V71.3755H271.545V72.4523H272.332V74.5195C272.332 74.7995 272.332 75.0256 272.332 75.3163C272.386 76.07 272.752 76.4469 273.98 76.4469C274.308 76.4498 274.636 76.4246 274.96 76.3715V75.2948C274.173 75.2948 274.023 75.2302 273.98 74.7241V72.4092H275.057V71.3325H273.98L274.001 70.0942Z" fill="#1E1E1C"/>
<path d="M278.018 71.2139C277.509 71.2309 277.016 71.3973 276.6 71.6925C276.185 71.9877 275.866 72.3987 275.683 72.8741C275.499 73.3495 275.46 73.8683 275.57 74.3658C275.679 74.8634 275.933 75.3177 276.299 75.672C276.665 76.0263 277.128 76.265 277.629 76.3584C278.13 76.4517 278.647 76.3956 279.117 76.1969C279.586 75.9982 279.986 75.6658 280.268 75.2411C280.55 74.8165 280.7 74.3183 280.7 73.8088C280.724 73.4545 280.67 73.0993 280.542 72.7678C280.415 72.4364 280.216 72.1368 279.961 71.8898C279.706 71.6428 279.4 71.4544 279.064 71.3377C278.729 71.221 278.372 71.1787 278.018 71.2139ZM278.018 75.2839C277.426 75.2839 277.071 74.7886 277.071 73.8088C277.071 72.829 277.426 72.3337 278.018 72.3337C278.611 72.3337 278.977 72.8183 278.977 73.8088C278.977 74.7994 278.611 75.2839 278.018 75.2839Z" fill="#1E1E1C"/>
<path d="M284.944 69.8896H283.274V76.2746H284.944V69.8896Z" fill="#1E1E1C"/>
<path d="M292.225 71.2032C291.845 71.1925 291.47 71.2936 291.148 71.4939L290.631 72.1722C290.505 71.8626 290.284 71.6014 289.999 71.427C289.714 71.2526 289.38 71.1741 289.047 71.2032C288.667 71.1885 288.291 71.2899 287.97 71.4939L287.572 72.1291V71.3431H285.902V76.2745H287.572V73.6688C287.572 72.829 287.776 72.3337 288.315 72.3337C288.853 72.3337 288.972 72.6137 289.026 73.0874C289.039 73.3133 289.039 73.5398 289.026 73.7657V76.2745H290.684V73.6688C290.684 72.829 290.9 72.3337 291.438 72.3337C291.977 72.3337 292.095 72.6137 292.149 73.0874C292.163 73.3133 292.163 73.5398 292.149 73.7657V76.2745H293.808V73.3889C293.828 73.0806 293.828 72.7713 293.808 72.4629C293.741 72.0972 293.543 71.7682 293.252 71.5367C292.961 71.3051 292.596 71.1867 292.225 71.2032Z" fill="#1E1E1C"/>
<path d="M297.254 71.2141C296.744 71.2247 296.247 71.3858 295.827 71.6773C295.408 71.9688 295.083 72.3777 294.895 72.8527C294.707 73.3277 294.663 73.8477 294.769 74.3474C294.875 74.8472 295.127 75.3045 295.492 75.662C295.857 76.0196 296.319 76.2614 296.821 76.3573C297.323 76.4531 297.843 76.3987 298.314 76.2008C298.785 76.0029 299.187 75.6704 299.47 75.2449C299.753 74.8194 299.904 74.3199 299.904 73.809C299.927 73.4576 299.874 73.1054 299.748 72.7765C299.622 72.4476 299.427 72.1497 299.175 71.9033C298.924 71.6569 298.622 71.4677 298.29 71.3488C297.959 71.2298 297.605 71.1839 297.254 71.2141ZM297.254 75.2841C296.662 75.2841 296.296 74.7888 296.296 73.809C296.296 72.8292 296.662 72.3339 297.254 72.3339C297.847 72.3339 298.202 72.8184 298.202 73.809C298.202 74.7996 297.847 75.2841 297.254 75.2841Z" fill="#1E1E1C"/>
<path d="M303.921 71.2032C303.48 71.1826 303.042 71.2911 302.661 71.5154L302.295 72.0646V69.4805H300.626V76.2745H302.295V75.6393L302.618 76.1668C302.975 76.3336 303.366 76.4147 303.76 76.4037C304.097 76.3973 304.429 76.3201 304.734 76.177C305.039 76.034 305.311 75.8283 305.531 75.5734C305.752 75.3185 305.916 75.0201 306.013 74.6975C306.111 74.3749 306.139 74.0355 306.097 73.7012C306.137 73.3909 306.11 73.0757 306.019 72.7765C305.928 72.4772 305.775 72.2005 305.569 71.9646C305.364 71.7287 305.111 71.5389 304.827 71.4077C304.543 71.2764 304.234 71.2068 303.921 71.2032ZM303.307 75.2839C302.801 75.2839 302.295 74.9502 302.295 73.9596V73.7442C302.295 72.6675 302.737 72.3338 303.372 72.3338C304.008 72.3338 304.449 72.8506 304.449 73.7765C304.449 74.7025 303.954 75.2839 303.318 75.2839H303.307Z" fill="#1E1E1C"/>
<path d="M308.499 71.3325H306.829V76.2747H308.499V71.3325Z" fill="#1E1E1C"/>
<path d="M307.626 69.3296C307.466 69.336 307.311 69.3893 307.181 69.483C307.051 69.5767 306.951 69.7065 306.894 69.8565C306.837 70.0065 306.825 70.1699 306.86 70.3265C306.895 70.483 306.976 70.6258 307.091 70.737C307.207 70.8483 307.353 70.9231 307.511 70.9521C307.668 70.9811 307.831 70.9631 307.979 70.9004C308.127 70.8376 308.253 70.7328 308.341 70.599C308.43 70.4652 308.477 70.3084 308.477 70.1479C308.482 70.0364 308.463 69.925 308.422 69.8213C308.381 69.7176 308.317 69.6239 308.237 69.5465C308.156 69.469 308.06 69.4097 307.955 69.3723C307.85 69.3349 307.738 69.3203 307.626 69.3296Z" fill="#1E1E1C"/>
<path d="M311.138 74.9934C311.124 74.843 311.124 74.6916 311.138 74.5411V69.5237H309.468V74.5734C309.468 74.9395 309.468 75.198 309.468 75.4564C309.468 76.1132 309.942 76.4147 310.707 76.4147C311.073 76.4147 311.375 76.4147 311.676 76.4147V75.2841C311.245 75.2195 311.159 75.1549 311.138 74.9934Z" fill="#1E1E1C"/>
<path d="M313.141 69.3296C312.981 69.338 312.827 69.3931 312.698 69.488C312.57 69.5829 312.471 69.7134 312.416 69.8635C312.361 70.0136 312.35 70.1766 312.387 70.3324C312.423 70.4881 312.504 70.6299 312.62 70.7401C312.736 70.8503 312.882 70.924 313.039 70.9523C313.197 70.9805 313.359 70.962 313.506 70.899C313.653 70.836 313.779 70.7313 313.867 70.5978C313.955 70.4643 314.002 70.3079 314.003 70.1479C314.008 70.0354 313.989 69.923 313.946 69.8185C313.904 69.714 313.84 69.6197 313.759 69.5421C313.677 69.4645 313.579 69.4054 313.473 69.3687C313.366 69.332 313.253 69.3187 313.141 69.3296Z" fill="#1E1E1C"/>
<path d="M313.981 71.3325H312.312V76.2747H313.981V71.3325Z" fill="#1E1E1C"/>
<path d="M319.011 69.8359H317.535L316.695 70.9988H317.578L319.011 69.8359Z" fill="#1E1E1C"/>
<path d="M319.409 73.6365C319.409 73.335 319.409 73.055 319.409 72.7966C319.334 71.903 318.806 71.2139 317.255 71.2139C316.006 71.2139 314.983 71.8707 314.972 73.0228H316.544C316.544 72.6029 316.792 72.3444 317.18 72.3444C317.321 72.3293 317.463 72.3706 317.574 72.4593C317.685 72.5481 317.756 72.6771 317.772 72.8182C317.781 72.94 317.781 73.0624 317.772 73.1843V73.2596H317.46C315.78 73.2596 314.789 73.9057 314.789 74.9608C314.79 75.1626 314.832 75.362 314.914 75.5466C314.995 75.7312 315.114 75.8969 315.263 76.0334C315.411 76.1699 315.587 76.2742 315.778 76.3398C315.969 76.4053 316.171 76.4307 316.372 76.4144C316.802 76.4233 317.224 76.3073 317.589 76.0806L317.794 75.5638L317.901 76.2852H319.474C319.418 75.8712 319.39 75.454 319.388 75.0362L319.409 73.6365ZM317.74 74.5086C317.746 74.6074 317.731 74.7064 317.698 74.7995C317.664 74.8927 317.612 74.9781 317.545 75.0505C317.478 75.123 317.396 75.181 317.306 75.2211C317.215 75.2612 317.117 75.2826 317.018 75.2838C316.684 75.2838 316.458 75.1116 316.458 74.8209C316.458 74.3256 316.997 74.1318 317.74 74.1856V74.5086Z" fill="#1E1E1C"/>
<path d="M322.425 71.6448L322.07 72.3338V71.3432H320.411V76.2746H322.07V74.4657C322.07 72.9799 322.522 72.5169 323.771 72.5922V71.2356C323.646 71.2236 323.52 71.2236 323.394 71.2356C323.214 71.2346 323.034 71.2704 322.868 71.3407C322.701 71.411 322.551 71.5145 322.425 71.6448Z" fill="#1E1E1C"/>
<path d="M325.969 71.3325H324.299V76.2747H325.969V71.3325Z" fill="#1E1E1C"/>
<path d="M325.128 69.3296C324.969 69.338 324.815 69.3931 324.686 69.488C324.557 69.5829 324.459 69.7134 324.404 69.8635C324.348 70.0136 324.338 70.1766 324.374 70.3324C324.411 70.4881 324.492 70.6299 324.608 70.7401C324.724 70.8503 324.869 70.924 325.027 70.9523C325.184 70.9805 325.347 70.962 325.494 70.899C325.641 70.836 325.766 70.7313 325.854 70.5978C325.943 70.4643 325.99 70.3079 325.99 70.1479C325.995 70.0354 325.976 69.923 325.934 69.8185C325.892 69.714 325.828 69.6197 325.746 69.5421C325.664 69.4645 325.567 69.4054 325.46 69.3687C325.354 69.332 325.241 69.3187 325.128 69.3296Z" fill="#1E1E1C"/>
<path d="M329.34 71.2141C328.829 71.2247 328.332 71.3858 327.913 71.6773C327.493 71.9688 327.169 72.3777 326.98 72.8527C326.792 73.3277 326.748 73.8477 326.854 74.3474C326.961 74.8472 327.212 75.3045 327.577 75.662C327.942 76.0196 328.405 76.2614 328.907 76.3573C329.409 76.4531 329.928 76.3987 330.399 76.2008C330.87 76.0029 331.272 75.6704 331.555 75.2449C331.838 74.8194 331.989 74.3199 331.989 73.809C332.012 73.4576 331.959 73.1054 331.833 72.7765C331.708 72.4476 331.512 72.1497 331.261 71.9033C331.009 71.6569 330.707 71.4677 330.376 71.3488C330.044 71.2298 329.691 71.1839 329.34 71.2141ZM329.34 75.2841C328.747 75.2841 328.381 74.7888 328.381 73.809C328.381 72.8292 328.747 72.3339 329.34 72.3339C329.932 72.3339 330.288 72.8184 330.288 73.809C330.288 74.7996 329.932 75.2841 329.34 75.2841Z" fill="#1E1E1C"/>
<path d="M222.83 4.51133C222.656 4.80523 222.402 5.04403 222.098 5.20041C221.723 5.38343 221.309 5.47216 220.892 5.45884H219.998V7.61227H218.555V1.69033H220.892C221.304 1.68142 221.713 1.76607 222.087 1.93796C222.395 2.08351 222.651 2.32035 222.82 2.61629C222.987 2.91544 223.072 3.25341 223.067 3.59611C223.062 3.9156 222.981 4.22923 222.83 4.51133ZM221.398 4.11295C221.466 4.03919 221.518 3.95252 221.551 3.85816C221.584 3.7638 221.598 3.66367 221.592 3.56381C221.598 3.4656 221.584 3.36717 221.551 3.27459C221.517 3.182 221.465 3.09723 221.398 3.02545C221.222 2.88331 220.999 2.81395 220.773 2.83165H219.998V4.30675H220.773C220.999 4.32445 221.222 4.25509 221.398 4.11295Z" fill="#1E1E1C"/>
<path d="M230.445 6.53565H228.291L227.936 7.61237H226.428L228.582 1.69043H230.262L232.416 7.61237H230.898L230.445 6.53565ZM230.068 5.45894L229.336 3.3055L228.614 5.45894H230.068Z" fill="#1E1E1C"/>
<path d="M238.943 7.58001L237.715 5.3512H237.37V7.58001H235.927V1.65807H238.351C238.759 1.64774 239.165 1.73249 239.535 1.90569C239.845 2.04716 240.105 2.28011 240.279 2.57325C240.443 2.86567 240.529 3.19601 240.526 3.53155C240.532 3.92347 240.404 4.30564 240.163 4.61493C239.922 4.92423 239.583 5.14214 239.201 5.23274L240.569 7.58001H238.943ZM237.37 4.34986H238.264C238.48 4.36588 238.693 4.2962 238.857 4.15603C238.924 4.08227 238.977 3.9956 239.01 3.90124C239.043 3.80688 239.057 3.70679 239.051 3.60692C239.056 3.51043 239.041 3.41387 239.008 3.32316C238.975 3.23244 238.923 3.14945 238.857 3.07931C238.693 2.93914 238.48 2.86949 238.264 2.88551H237.37V4.34986Z" fill="#1E1E1C"/>
<path d="M248.636 1.6582V2.85334H247.064V7.61244H245.621V2.85334H244.081V1.6905L248.636 1.6582Z" fill="#1E1E1C"/>
<path d="M253.774 1.6582V7.58014H252.331V1.6582H253.774Z" fill="#1E1E1C"/>
<path d="M257.888 3.04696C258.141 2.59512 258.513 2.22231 258.965 1.97024C259.436 1.70772 259.967 1.57402 260.506 1.58264C261.154 1.563 261.791 1.75999 262.315 2.14252C262.816 2.51645 263.17 3.05342 263.317 3.66069H261.733C261.625 3.42461 261.449 3.22602 261.227 3.09003C260.937 2.92594 260.601 2.86331 260.271 2.91207C259.941 2.96083 259.637 3.11819 259.407 3.35921C259.122 3.71152 258.977 4.15586 258.998 4.60821C258.978 5.05718 259.123 5.49791 259.407 5.84642C259.637 6.08744 259.941 6.24481 260.271 6.29356C260.601 6.34232 260.937 6.27969 261.227 6.1156C261.449 5.97962 261.625 5.78103 261.733 5.54494H263.317C263.17 6.15221 262.816 6.68918 262.315 7.06312C261.787 7.43746 261.152 7.6302 260.506 7.61225C259.967 7.62087 259.436 7.48714 258.965 7.22462C258.509 6.97884 258.134 6.60446 257.888 6.1479C257.635 5.67072 257.505 5.13763 257.511 4.59743C257.505 4.05722 257.635 3.52413 257.888 3.04696Z" fill="#1E1E1C"/>
<path d="M268.573 1.6582V7.58014H267.129V1.6582H268.573Z" fill="#1E1E1C"/>
<path d="M276.834 4.5115C276.66 4.80251 276.411 5.04074 276.112 5.20058C275.733 5.38367 275.315 5.47236 274.895 5.45901H274.001V7.61244H272.558V1.6905H274.895C275.307 1.67889 275.717 1.76367 276.09 1.93813C276.398 2.08368 276.654 2.32052 276.823 2.61646C276.99 2.91561 277.076 3.25358 277.071 3.59628C277.07 3.9164 276.988 4.23116 276.834 4.5115ZM275.401 4.11312C275.471 4.04024 275.525 3.95394 275.56 3.85954C275.595 3.76514 275.611 3.6646 275.606 3.56398C275.61 3.46501 275.595 3.36613 275.559 3.27351C275.524 3.18089 275.47 3.0965 275.401 3.02562C275.229 2.88514 275.009 2.81582 274.787 2.83182H274.001V4.30692H274.787C275.009 4.32292 275.229 4.2536 275.401 4.11312Z" fill="#1E1E1C"/>
<path d="M284.448 6.53565H282.24L281.885 7.61237H280.377L282.531 1.69043H284.201L286.355 7.61237H284.825L284.448 6.53565ZM284.082 5.45894L283.35 3.3055L282.617 5.45894H284.082Z" fill="#1E1E1C"/>
<path d="M293.388 6.08334C293.609 5.94994 293.782 5.75025 293.883 5.51268H295.477C295.343 6.05185 295.046 6.5367 294.626 6.90166C294.198 7.26268 293.674 7.49093 293.119 7.55844V7.88147C293.394 7.87755 293.663 7.96459 293.883 8.1291C293.996 8.21035 294.087 8.31948 294.145 8.44589C294.204 8.57229 294.228 8.71169 294.217 8.85051C294.224 8.98992 294.196 9.12888 294.136 9.25484C294.076 9.38079 293.985 9.48975 293.873 9.57189C293.631 9.74345 293.339 9.83051 293.043 9.81955H291.751V9.03353H292.828C292.913 9.05409 293.001 9.05409 293.086 9.03353C293.113 9.01432 293.135 8.98817 293.148 8.95783C293.161 8.92749 293.166 8.8941 293.162 8.86126C293.165 8.83002 293.16 8.79847 293.146 8.77001C293.133 8.74154 293.112 8.71725 293.086 8.69975C293.001 8.6796 292.913 8.6796 292.828 8.69975H292.235V7.62304C291.753 7.57843 291.289 7.4117 290.889 7.13854C290.5 6.86314 290.189 6.49235 289.984 6.06182C289.767 5.61233 289.656 5.11846 289.661 4.61902C289.652 4.07022 289.785 3.52835 290.049 3.047C290.298 2.59267 290.672 2.21905 291.126 1.97028C291.596 1.70776 292.128 1.57406 292.666 1.58268C293.315 1.56467 293.951 1.76151 294.476 2.14256C294.976 2.51649 295.331 3.05346 295.477 3.66073H293.883C293.782 3.42316 293.609 3.22348 293.388 3.09007C293.098 2.92598 292.761 2.86335 292.431 2.91211C292.102 2.96087 291.798 3.11823 291.568 3.35925C291.283 3.71156 291.137 4.1559 291.158 4.60825C291.138 5.05722 291.284 5.49795 291.568 5.84646C291.798 6.08748 292.102 6.24485 292.431 6.29361C292.761 6.34236 293.098 6.27973 293.388 6.11564V6.08334Z" fill="#1E1E1C"/>
<path d="M302.984 6.53565H300.776L300.421 7.61236H298.913L301.067 1.69043H302.737L304.891 7.61236H303.318L302.984 6.53565ZM301.369 -2.59578e-05C301.476 -0.0191771 301.585 -0.0191771 301.692 -2.59578e-05L302.037 0.172253L302.284 0.290676C302.348 0.302897 302.414 0.302897 302.478 0.290676C302.683 0.290676 302.801 0.17223 302.834 -0.0861816H303.577C303.447 0.74289 303.06 1.16281 302.413 1.16281C302.304 1.16252 302.194 1.14435 302.09 1.10899C301.993 1.10899 301.886 1.01209 301.746 0.94749C301.606 0.882886 301.563 0.850557 301.509 0.818256H301.315C301.1 0.818256 300.981 0.947468 300.938 1.19511H300.206C300.346 0.419878 300.733 -2.59578e-05 301.369 -2.59578e-05ZM302.618 5.38355L301.886 3.23012L301.164 5.38355H302.618Z" fill="#1E1E1C"/>
<path d="M309.781 7.25708C309.331 7.00147 308.959 6.62952 308.704 6.18036C308.439 5.70232 308.301 5.1652 308.301 4.61914C308.301 4.07308 308.439 3.53593 308.704 3.05789C308.958 2.60808 309.331 2.23592 309.781 1.98117C310.252 1.72673 310.779 1.59351 311.315 1.59351C311.851 1.59351 312.379 1.72673 312.85 1.98117C313.303 2.23186 313.676 2.605 313.927 3.05789C314.191 3.53593 314.33 4.07308 314.33 4.61914C314.33 5.1652 314.191 5.70232 313.927 6.18036C313.671 6.62952 313.299 7.00147 312.85 7.25708C312.38 7.50965 311.854 7.64185 311.321 7.64185C310.787 7.64185 310.262 7.50965 309.791 7.25708H309.781ZM312.452 5.85736C312.723 5.4956 312.87 5.0554 312.87 4.60297C312.87 4.15055 312.723 3.71035 312.452 3.34859C312.146 3.0513 311.736 2.88495 311.31 2.88495C310.884 2.88495 310.474 3.0513 310.168 3.34859C309.896 3.71035 309.75 4.15055 309.75 4.60297C309.75 5.0554 309.896 5.4956 310.168 5.85736C310.474 6.15465 310.884 6.321 311.31 6.321C311.736 6.321 312.146 6.15465 312.452 5.85736Z" fill="#1E1E1C"/>
<path d="M38.7629 7.58001L37.5351 5.3512H37.1904V7.58001H35.7472V1.65807H38.1705C38.5793 1.64774 38.9849 1.73249 39.3553 1.90569C39.6654 2.04716 39.9247 2.28011 40.0985 2.57325C40.2631 2.86567 40.3484 3.19601 40.3462 3.53155C40.3505 3.92154 40.2232 4.3016 39.9847 4.6103C39.7463 4.919 39.4107 5.13829 39.0322 5.23274L40.3893 7.58001H38.7629ZM37.1904 4.34986H38.0844C38.2997 4.36588 38.5126 4.2962 38.6767 4.15603C38.7444 4.08227 38.7964 3.9956 38.8298 3.90124C38.8631 3.80688 38.877 3.70679 38.8706 3.60692C38.8759 3.51043 38.8614 3.41387 38.8281 3.32316C38.7947 3.23244 38.7432 3.14945 38.6767 3.07931C38.5126 2.93914 38.2997 2.86949 38.0844 2.88551H37.1904V4.34986Z" fill="#1E1E1C"/>
<path d="M45.6345 2.85334V4.04848H47.5732V5.1252H45.6345V6.42805H47.7886V7.58014H44.1697V1.6582H47.7886V2.85334H45.6345Z" fill="#1E1E1C"/>
<path d="M55.4034 6.53565H53.1847L52.8292 7.61237H51.2891L53.4432 1.69043H55.1126L57.2667 7.61237H55.7373L55.4034 6.53565ZM55.0264 5.45894L54.294 3.3055L53.5724 5.45894H55.0264Z" fill="#1E1E1C"/>
<path d="M62.318 6.47095H64.2136V7.54767H60.8855V1.62573H62.318V6.47095Z" fill="#1E1E1C"/>
<path d="M69.2972 1.6582V7.58014H67.854V1.6582H69.2972Z" fill="#1E1E1C"/>
<path d="M74.8225 6.40645H77.3751V7.5801H73.1854V6.50339L75.7165 2.86408H73.1854V1.67969H77.3751V2.7564L74.8225 6.40645Z" fill="#1E1E1C"/>
<path d="M84.9576 6.53565H82.7389L82.3943 7.61237H80.8756L83.0297 1.69043H84.6776L86.8317 7.61237H85.3023L84.9576 6.53565ZM84.5807 5.45894L83.8483 3.3055L83.1266 5.45894H84.5807Z" fill="#1E1E1C"/>
<path d="M93.8862 6.08331C94.1046 5.9467 94.2771 5.74798 94.3817 5.51265H95.9649C95.8339 6.05076 95.5406 6.53563 95.1248 6.90163C94.6956 7.26053 94.1722 7.4885 93.617 7.55841V7.88144C93.8922 7.87752 94.161 7.96456 94.3817 8.12906C94.4948 8.21032 94.585 8.31945 94.6435 8.44586C94.702 8.57226 94.7269 8.71166 94.7156 8.85048C94.7226 8.98989 94.6948 9.12885 94.6346 9.25481C94.5744 9.38076 94.4838 9.48972 94.3709 9.57186C94.1293 9.74341 93.8377 9.83047 93.5416 9.81952H92.2168V9.0335H93.2939C93.3751 9.05447 93.4603 9.05447 93.5416 9.0335C93.5725 9.01784 93.5976 8.99263 93.6132 8.96161C93.6287 8.93058 93.6338 8.89538 93.6277 8.86122C93.6314 8.82875 93.6251 8.79595 93.6098 8.76712C93.5944 8.73828 93.5706 8.71477 93.5416 8.69972C93.4603 8.67921 93.3752 8.67921 93.2939 8.69972H92.6907V7.62301C92.2114 7.57848 91.7515 7.41167 91.3552 7.1385C90.9662 6.86311 90.6547 6.49232 90.4505 6.06179C90.2326 5.6123 90.122 5.11843 90.1273 4.61899C90.1177 4.07152 90.2474 3.53055 90.5043 3.04696C90.7574 2.59581 91.1301 2.22323 91.5814 1.97025C92.0511 1.70628 92.5828 1.57248 93.1215 1.58265C93.7668 1.56293 94.4001 1.76006 94.9202 2.14253C95.4278 2.50984 95.7839 3.04963 95.9218 3.6607H94.3709C94.2663 3.42538 94.0938 3.22666 93.8754 3.09004C93.6498 2.95952 93.393 2.89256 93.1323 2.89624C92.9299 2.89028 92.7286 2.92861 92.5425 3.00858C92.3565 3.08856 92.1902 3.20824 92.0553 3.35922C91.7631 3.70795 91.6132 4.1539 91.6352 4.60822C91.6127 5.05933 91.7629 5.50208 92.0553 5.84643C92.1902 5.99741 92.3565 6.11709 92.5425 6.19707C92.7286 6.27704 92.9299 6.31537 93.1323 6.30941C93.3997 6.30533 93.6607 6.22706 93.8862 6.08331Z" fill="#1E1E1C"/>
<path d="M103.483 6.53565H101.275L100.919 7.61236H99.4115L101.566 1.69043H103.235L105.389 7.61236H103.86L103.483 6.53565ZM101.867 -2.59578e-05C101.974 -0.0173184 102.083 -0.0173184 102.19 -2.59578e-05L102.535 0.172253L102.772 0.290676H102.966C103.181 0.290676 103.3 0.17223 103.332 -0.0861816H104.064C103.924 0.74289 103.537 1.16281 102.901 1.16281C102.791 1.16443 102.682 1.14621 102.578 1.10899C102.481 1.10899 102.373 1.01209 102.233 0.94749C102.154 0.898319 102.071 0.855102 101.986 0.818256C101.922 0.806035 101.856 0.806035 101.792 0.818256C101.587 0.818256 101.458 0.947468 101.426 1.19511H100.693C100.833 0.419878 101.221 -2.59578e-05 101.91 -2.59578e-05H101.867ZM103.117 5.38355L102.384 3.23012L101.652 5.38355H103.117Z" fill="#1E1E1C"/>
<path d="M110.236 7.25711C109.79 6.99742 109.419 6.62642 109.159 6.1804C108.895 5.70236 108.756 5.16524 108.756 4.61918C108.756 4.07312 108.895 3.53597 109.159 3.05793C109.417 2.61099 109.789 2.23972 110.236 1.98121C110.706 1.72864 111.232 1.59644 111.765 1.59644C112.299 1.59644 112.825 1.72864 113.295 1.98121C113.745 2.23595 114.117 2.60811 114.372 3.05793C114.636 3.53597 114.774 4.07312 114.774 4.61918C114.774 5.16524 114.636 5.70236 114.372 6.1804C114.116 6.62956 113.744 7.00151 113.295 7.25711C112.825 7.50969 112.299 7.64189 111.765 7.64189C111.232 7.64189 110.706 7.50969 110.236 7.25711ZM112.896 5.8574C113.175 5.49857 113.326 5.05725 113.326 4.60301C113.326 4.14878 113.175 3.70746 112.896 3.34863C112.759 3.20042 112.592 3.08264 112.407 3.00289C112.221 2.92314 112.021 2.88319 111.819 2.88565C111.607 2.8753 111.394 2.91137 111.197 2.99132C111 3.07128 110.823 3.1932 110.677 3.34863C110.399 3.70746 110.248 4.14878 110.248 4.60301C110.248 5.05725 110.399 5.49857 110.677 5.8574C110.823 6.01283 111 6.13475 111.197 6.2147C111.394 6.29466 111.607 6.33073 111.819 6.32038C112.021 6.32283 112.221 6.28289 112.407 6.20314C112.592 6.12338 112.759 6.00561 112.896 5.8574Z" fill="#1E1E1C"/>
<path d="M38.6552 21.8467L0 31.5479V38.708L3.90968 41.4752L0 42.455V70.3312L13.6354 80.0001L52.2907 70.2989V63.1387L48.381 60.3716L52.2907 59.381V31.5156L38.6552 21.8467Z" fill="#E7E8E9"/>
<path d="M13.8617 51.693L13.5924 79.9999L52.2477 70.3095V63.1493L20.604 71.0847V56.9151L40.7663 51.8546V45.3081L13.8617 51.693ZM13.6355 41.2166V48.366L45.2792 40.4306V54.6002L25.1168 59.65V66.2072L52.2907 59.3916V31.5154L13.6355 41.2166Z" fill="#F08236"/>
<path d="M0 38.708L13.6354 48.3661V41.206L0 31.5479V38.708Z" fill="#494245"/>
<path d="M0 70.331L13.6354 79.9999L13.8724 51.6931L0 42.4548V70.331Z" fill="#494245"/>
<path d="M45.2791 40.4307V54.6002L40.8094 51.8546V45.3082L36.9858 42.5303L45.2791 40.4307Z" fill="#494245"/>
<path d="M25.1167 59.6502V66.1966L20.6577 63.0418V56.9045L25.1167 59.6502Z" fill="#494245"/>
<path d="M145.746 72.1829L144.669 69.8142L143.592 72.1829H145.746ZM144.852 67.4131L148.913 76.1022H147.588L146.285 73.3673H142.957L141.664 76.1022H140.318L144.411 67.4131H144.852ZM135.934 71.0955C136.052 71.1132 136.172 71.1132 136.29 71.0955L136.57 70.9663C136.663 70.9318 136.743 70.8675 136.796 70.7832L136.957 70.5571C137.086 70.3543 137.153 70.1188 137.151 69.8788C137.153 69.6488 137.086 69.4236 136.957 69.2327C136.9 69.1358 136.827 69.0487 136.742 68.9743C136.676 68.9067 136.604 68.8454 136.527 68.7913C136.352 68.709 136.159 68.672 135.967 68.6836H134.696V71.117L135.934 71.0955ZM139.37 76.1237H137.851L134.879 72.2691H134.696V76.1237H133.479V67.4562H135.891H136.247C136.314 67.4467 136.383 67.4467 136.451 67.4562H136.58C136.943 67.5487 137.279 67.7247 137.562 67.9702C137.845 68.2158 138.066 68.524 138.208 68.8702C138.351 69.2165 138.41 69.5912 138.382 69.9645C138.353 70.3378 138.238 70.6993 138.045 71.0201C137.932 71.2122 137.786 71.3834 137.614 71.5261C137.442 71.6716 137.25 71.7913 137.044 71.8814L136.699 72.043L136.376 72.1506L139.37 76.1237ZM131.271 71.763C131.279 71.1728 131.134 70.5904 130.851 70.0726C130.556 69.566 130.132 69.1462 129.623 68.8559C129.11 68.5673 128.531 68.4153 127.943 68.4144C127.364 68.4179 126.797 68.5699 126.295 68.8559C125.795 69.1597 125.377 69.5811 125.078 70.0833C124.783 70.609 124.634 71.2037 124.647 71.8061C124.639 72.2482 124.72 72.6875 124.884 73.0981C125.049 73.5021 125.294 73.8684 125.605 74.1748C125.91 74.4853 126.273 74.7311 126.675 74.8976C127.077 75.0641 127.508 75.1479 127.943 75.1439C128.535 75.143 129.117 74.9911 129.633 74.7025C130.141 74.4172 130.559 73.9958 130.84 73.4858C131.135 72.9645 131.284 72.3729 131.271 71.7738V71.763ZM131.195 68.5436C132.037 69.4081 132.509 70.5671 132.509 71.7738C132.509 72.9805 132.037 74.1395 131.195 75.0039C130.779 75.4379 130.276 75.78 129.72 76.0081C129.163 76.2362 128.565 76.3452 127.964 76.3283C127.364 76.3356 126.769 76.2222 126.214 75.9946C125.659 75.7671 125.155 75.4302 124.733 75.0039C124.299 74.5878 123.957 74.0854 123.728 73.5291C123.5 72.9727 123.391 72.3748 123.408 71.7738C123.405 70.9629 123.613 70.1651 124.011 69.4588C124.403 68.7625 124.976 68.1856 125.67 67.7899C126.347 67.3879 127.122 67.1794 127.91 67.187C128.519 67.1699 129.125 67.2766 129.692 67.5005C130.258 67.7245 130.773 68.061 131.206 68.4898L131.195 68.5436ZM116.655 67.4131H122.87V68.6082H120.382V76.1452H119.143V68.6082H116.644L116.655 67.4131ZM115.987 67.4131V72.6136C115.989 72.9732 115.971 73.3327 115.933 73.6903C115.907 73.9678 115.853 74.2418 115.772 74.5086C115.59 75.0205 115.265 75.4691 114.835 75.8007C114.35 76.1706 113.754 76.3643 113.144 76.3498C112.499 76.363 111.865 76.183 111.324 75.833C110.811 75.5176 110.429 75.0285 110.247 74.4548C110.186 74.2256 110.146 73.9914 110.128 73.7549C110.11 73.3963 110.11 73.0369 110.128 72.6782V67.4777H111.345V73.4642C111.345 73.6149 111.345 73.7119 111.345 73.7549C111.369 74.0152 111.453 74.2661 111.593 74.4871C111.752 74.7036 111.968 74.8714 112.218 74.9716C112.458 75.0862 112.719 75.1474 112.985 75.1511C113.251 75.1548 113.515 75.1009 113.758 74.9932C113.972 74.8846 114.162 74.7345 114.318 74.5517C114.471 74.3488 114.585 74.1186 114.652 73.8734C114.66 73.7479 114.66 73.622 114.652 73.4965C114.652 73.3242 114.652 73.0335 114.652 72.6244V67.4239L115.987 67.4131ZM105.518 71.117C105.64 71.1337 105.763 71.1337 105.885 71.117L106.165 70.9878C106.254 70.9469 106.332 70.8839 106.391 70.8047L106.552 70.5786C106.678 70.3749 106.741 70.1393 106.735 69.9003C106.745 69.6709 106.681 69.4446 106.552 69.2543C106.491 69.1566 106.415 69.0693 106.326 68.9959C106.26 68.9282 106.188 68.867 106.111 68.8128C105.94 68.7292 105.751 68.692 105.561 68.7052H104.28V71.1385L105.518 71.117ZM108.954 76.1452H107.446L104.474 72.2906H104.291V76.1452H103.073V67.4562H105.486H105.841H106.046H106.175C106.682 67.5609 107.137 67.8342 107.468 68.2314C107.818 68.654 108.002 69.1901 107.985 69.7388C107.993 70.1898 107.873 70.6338 107.64 71.0201C107.524 71.21 107.378 71.3808 107.209 71.5261C107.036 71.6692 106.844 71.7887 106.639 71.8814L106.283 72.043C106.183 72.0886 106.078 72.1246 105.971 72.1506L108.954 76.1452ZM95.9111 67.4131H102.126V68.6082H99.6377V76.1452H98.4099V68.6082H95.9111V67.4131ZM94.7156 72.4844C94.9834 72.8868 95.1293 73.3578 95.1356 73.8411C95.1359 74.1605 95.07 74.4766 94.9421 74.7694C94.8142 75.0622 94.6271 75.3253 94.3925 75.5423C94.1566 75.7772 93.8757 75.9622 93.5666 76.0861C93.2576 76.2101 92.9267 76.2705 92.5938 76.2637C92.0695 76.2633 91.5566 76.1099 91.1182 75.8222C90.6107 75.4549 90.2034 74.9663 89.9335 74.401L89.8366 74.2502L90.9136 73.615L91.0105 73.798C91.1982 74.169 91.454 74.5013 91.7645 74.7778C91.9894 74.9623 92.2705 75.0649 92.5615 75.0685C92.8043 75.0702 93.0441 75.0149 93.2616 74.907C93.4538 74.7969 93.6165 74.6417 93.7355 74.4548C93.8413 74.2715 93.897 74.0635 93.897 73.8518C93.8972 73.5938 93.8099 73.3433 93.6493 73.1412C93.2609 72.6473 92.7997 72.2153 92.2815 71.8599C91.7909 71.5194 91.3426 71.1218 90.9459 70.6755C90.6409 70.2806 90.4743 69.7963 90.472 69.2973C90.4694 68.9201 90.566 68.5488 90.752 68.2206C90.849 68.0574 90.9687 67.9087 91.1075 67.7792C91.245 67.651 91.3968 67.539 91.5598 67.4454C91.8901 67.2643 92.2602 67.1681 92.6369 67.1655C93.0511 67.158 93.4588 67.2702 93.8109 67.4885C94.2665 67.7584 94.6564 68.1262 94.9525 68.5652L95.071 68.7159L94.1017 69.4588L93.9724 69.3081C93.7669 69.0158 93.5202 68.7547 93.24 68.5329C93.046 68.4244 92.8269 68.3687 92.6046 68.3714C92.4805 68.3632 92.356 68.381 92.2392 68.4236C92.1223 68.4663 92.0157 68.5328 91.926 68.619C91.8409 68.6969 91.773 68.7918 91.7266 68.8975C91.6802 69.0032 91.6565 69.1173 91.6568 69.2327C91.6653 69.3887 91.7017 69.5419 91.7645 69.685C91.8578 69.8663 91.9817 70.0302 92.1307 70.1695C92.218 70.252 92.3116 70.3276 92.4107 70.3956C92.5543 70.5176 92.8128 70.7114 93.1862 70.977C93.7739 71.381 94.2907 71.8794 94.7156 72.4521V72.4844ZM87.7471 67.4562H88.9857V76.1345H88.5226L83.3312 70.1802V76.1345H82.0926V67.4562H82.5234L87.7471 73.4965V67.4562ZM79.8739 71.763C79.882 71.1728 79.7373 70.5904 79.4538 70.0726C79.1589 69.566 78.7353 69.1462 78.226 68.8559C77.713 68.5673 77.1344 68.4153 76.5458 68.4144C75.9677 68.4179 75.4003 68.5699 74.8979 68.8559C74.3982 69.1597 73.9803 69.5811 73.6808 70.0833C73.3862 70.609 73.2375 71.2037 73.25 71.8061C73.2423 72.2482 73.3229 72.6875 73.487 73.0981C73.6523 73.5021 73.8978 73.8684 74.2086 74.1748C74.5129 74.4853 74.8768 74.7311 75.2784 74.8976C75.68 75.0641 76.111 75.1479 76.5458 75.1439C77.1378 75.143 77.7199 74.9911 78.2368 74.7025C78.7411 74.4128 79.1578 73.9925 79.443 73.4858C79.7387 72.9645 79.8876 72.3729 79.8739 71.7738V71.763ZM79.7985 68.5436C80.6406 69.4081 81.1119 70.5671 81.1119 71.7738C81.1119 72.9805 80.6406 74.1395 79.7985 75.0039C79.3798 75.4348 78.8768 75.7747 78.3209 76.0025C77.765 76.2304 77.168 76.3413 76.5673 76.3283C75.9673 76.3362 75.3719 76.223 74.8167 75.9955C74.2615 75.7679 73.7579 75.4307 73.3362 75.0039C72.9021 74.5878 72.5599 74.0854 72.3317 73.5291C72.1036 72.9727 71.9945 72.3748 72.0114 71.7738C72.0082 70.9629 72.216 70.1651 72.6146 69.4588C73.0058 68.7625 73.5792 68.1856 74.2732 67.7899C74.9508 67.3879 75.7256 67.1794 76.5135 67.187C77.1224 67.1699 77.7285 67.2766 78.295 67.5005C78.8615 67.7245 79.3766 68.061 79.8092 68.4898L79.7985 68.5436ZM71.3975 74.3794L71.279 74.5302C70.855 75.0845 70.2999 75.5248 69.6635 75.8115C68.9875 76.119 68.2519 76.2734 67.5094 76.2637C66.8379 76.2928 66.1683 76.1716 65.5497 75.909C64.931 75.6463 64.3789 75.2488 63.9336 74.7455C63.2094 73.8813 62.8263 72.7823 62.8565 71.6553C62.8409 71.0535 62.9517 70.4551 63.1818 69.8987C63.4118 69.3424 63.756 68.8404 64.192 68.4252C64.631 67.996 65.1519 67.6595 65.7236 67.4357C66.2954 67.2118 66.9064 67.1053 67.5201 67.1224C67.9073 67.1228 68.2934 67.1625 68.6726 67.2408C69.7278 67.4726 70.6623 68.0813 71.3006 68.9528L71.419 69.1035L70.4605 69.8357L70.342 69.685C70.0194 69.2545 69.5984 68.9074 69.1142 68.6729C68.5916 68.4222 68.0163 68.3012 67.4369 68.3199C66.8576 68.3387 66.2914 68.4967 65.7861 68.7805C65.2705 69.0577 64.8446 69.476 64.5583 69.9864C64.2509 70.5038 64.0942 71.0968 64.1059 71.6984C64.1058 72.1514 64.1898 72.6005 64.3536 73.0228C64.5276 73.4273 64.7802 73.7933 65.0968 74.0995C65.2538 74.2573 65.4271 74.3981 65.6138 74.5194C65.7984 74.6368 65.993 74.7377 66.1954 74.8209C66.6407 74.983 67.1108 75.0668 67.5848 75.0685C68.1094 75.0703 68.6279 74.9564 69.1034 74.7348C69.5869 74.504 70.0135 74.1695 70.3528 73.7549L70.4712 73.6257L71.3975 74.3794Z" fill="#F08236"/>
<path d="M114.404 45.7605C115.892 45.4855 117.231 44.6825 118.174 43.4994C119.021 42.0867 119.416 40.4485 119.305 38.8049C119.305 36.2208 118.716 34.3688 117.538 33.249C116.343 32.1723 114.382 31.5586 111.614 31.5586H92.3568V62.0727H104.204V49.4751H105.529C105.775 49.4485 106.023 49.4794 106.255 49.5654C106.487 49.6513 106.696 49.79 106.865 49.9704C107.169 50.4788 107.301 51.0715 107.242 51.6609V62.0727H119.315V54.2127C119.44 52.1903 119.043 50.1699 118.163 48.3446C117.75 47.6769 117.202 47.1024 116.555 46.6576C115.908 46.2127 115.175 45.9072 114.404 45.7605ZM106.865 42.3473C106.693 42.5204 106.485 42.6528 106.256 42.7348C106.027 42.8168 105.782 42.8463 105.54 42.821H104.215V38.5142H105.54C105.784 38.4873 106.031 38.5159 106.262 38.598C106.493 38.68 106.703 38.8133 106.875 38.9879C107.18 39.5038 107.313 40.1037 107.252 40.6999C107.311 41.2741 107.182 41.8519 106.886 42.3473H106.865Z" fill="#1E1E1C"/>
<path d="M82.2325 31.3755H69.8142C67.1575 31.3755 65.287 31.9246 64.2028 33.0229C63.1257 34.0996 62.5872 36.0054 62.5872 38.6649V55.7093C62.5089 56.6154 62.6229 57.5279 62.9217 58.387C63.2205 59.246 63.6975 60.0324 64.3212 60.6945C65.4845 61.7497 67.3154 62.2772 69.8142 62.2772H82.2325C84.918 62.2772 86.8423 61.7676 88.0055 60.7483C89.1687 59.729 89.7539 58.0493 89.7611 55.7093V49.6258H77.6874V53.1575C77.7355 53.7392 77.6039 54.3217 77.3104 54.8264C77.1794 55.0087 77.0034 55.1541 76.7996 55.2484C76.5958 55.3427 76.3711 55.3828 76.1472 55.3647C75.9276 55.3823 75.7072 55.343 75.5072 55.2506C75.3072 55.1581 75.1345 55.0158 75.0056 54.8371C74.7285 54.3229 74.6051 53.7398 74.6501 53.1575V40.463C74.6051 39.8806 74.7285 39.2976 75.0056 38.7833C75.1359 38.6062 75.3089 38.4649 75.5085 38.3727C75.7081 38.2804 75.9279 38.2402 76.1472 38.2557C76.3713 38.2343 76.5971 38.2695 76.8041 38.3579C77.011 38.4463 77.1925 38.5851 77.332 38.7618C77.6125 39.2825 77.736 39.8735 77.6874 40.463V42.6918H89.7611V38.6756C89.7611 35.9767 89.2154 34.0852 88.124 33.0013C87.0326 31.9174 85.0688 31.3755 82.2325 31.3755Z" fill="#1E1E1C"/>
<path d="M147.9 43.4778C148.751 42.0739 149.149 40.4427 149.042 38.8049C149.042 36.2423 148.45 34.3939 147.265 33.2598C146.08 32.1256 144.098 31.5586 141.32 31.5586H122.062V62.0727H141.32C144.163 62.0727 146.155 61.4805 147.319 60.3177C148.482 59.1548 149.042 57.0875 149.042 54.2234C149.166 52.2011 148.769 50.1807 147.89 48.3554C147.475 47.6824 146.923 47.1043 146.27 46.659C145.616 46.2138 144.876 45.9112 144.098 45.7712C145.603 45.4961 146.955 44.6805 147.9 43.4778ZM136.979 52.8883C137.033 53.4877 136.902 54.0892 136.602 54.6111C136.427 54.7846 136.215 54.9164 135.982 54.9965C135.749 55.0767 135.501 55.1032 135.256 55.0741H133.942V49.4751H135.299C135.546 49.4476 135.797 49.478 136.03 49.564C136.264 49.65 136.475 49.7891 136.645 49.9704C136.944 50.4807 137.076 51.0718 137.022 51.6609L136.979 52.8883ZM136.581 42.3473C136.41 42.5216 136.202 42.655 135.973 42.737C135.743 42.8191 135.498 42.8478 135.256 42.821H133.942V38.5142H135.299C135.544 38.4864 135.793 38.5146 136.026 38.5966C136.26 38.6787 136.471 38.8125 136.645 38.9879C136.945 39.5057 137.077 40.104 137.022 40.6999C137.064 41.283 136.908 41.8632 136.581 42.3473Z" fill="#1E1E1C"/>
<path d="M149.203 30.5357L149.074 30.4604C149.187 30.4556 149.294 30.4096 149.376 30.3312C149.442 30.2681 149.483 30.1839 149.493 30.0933C149.503 30.0028 149.48 29.9116 149.43 29.8359C149.381 29.7745 149.318 29.7264 149.247 29.6959C149.121 29.6801 148.995 29.6801 148.87 29.6959H148.374V31.1602H148.6V30.5357H148.74C148.809 30.5326 148.877 30.5515 148.934 30.5896C149.031 30.6897 149.114 30.8019 149.182 30.9234L149.311 31.1602H149.591L149.419 30.8695C149.354 30.7542 149.282 30.6427 149.203 30.5357ZM148.891 30.2989H148.6V29.8574H148.87H149.107C149.145 29.8736 149.178 29.8996 149.203 29.9328C149.218 29.9708 149.218 30.0132 149.203 30.0512C149.202 30.0819 149.195 30.112 149.182 30.1397C149.169 30.1675 149.151 30.1923 149.128 30.2127C149.059 30.2639 148.977 30.2938 148.891 30.2989Z" fill="#1E1E1C"/>
<path d="M150.14 29.6849C150.023 29.4745 149.847 29.3024 149.634 29.1896C149.43 29.0745 149.201 29.0117 148.966 29.0066C148.732 29.0103 148.502 29.0732 148.299 29.1896C148.083 29.2992 147.907 29.4721 147.793 29.6849C147.672 29.8908 147.609 30.1249 147.609 30.3632C147.609 30.6016 147.672 30.8357 147.793 31.0416C147.906 31.2516 148.078 31.4239 148.288 31.5369C148.493 31.6599 148.728 31.7233 148.966 31.7199C149.204 31.7155 149.436 31.6509 149.641 31.5323C149.846 31.4136 150.018 31.2448 150.14 31.0416C150.254 30.8334 150.313 30.6002 150.313 30.3632C150.313 30.1263 150.254 29.8931 150.14 29.6849ZM149.947 30.9231C149.853 31.1028 149.706 31.2493 149.527 31.343C149.357 31.4435 149.163 31.4957 148.966 31.4938C148.77 31.4957 148.576 31.4435 148.406 31.343C148.227 31.2493 148.08 31.1028 147.986 30.9231C147.886 30.7538 147.834 30.5601 147.836 30.3632C147.837 30.1668 147.889 29.9741 147.986 29.8034C148.08 29.6237 148.227 29.4772 148.406 29.3834C148.57 29.2889 148.756 29.2392 148.945 29.2392C149.134 29.2392 149.32 29.2889 149.483 29.3834C149.664 29.4797 149.814 29.6253 149.914 29.8034C150.009 29.967 150.059 30.1527 150.059 30.3417C150.059 30.5307 150.009 30.7164 149.914 30.8801L149.947 30.9231Z" fill="#1E1E1C"/>
</g>
<defs>
<clipPath id="clip0_524_290">
<rect width="332" height="80" fill="white"/>
</clipPath>
</defs>
</svg>
